<?xml version="1.0" encoding="UTF-8" standalone="no"?><svg xmlns="http://www.w3.org/2000/svg" xmlns:xlink="http://www.w3.org/1999/xlink" contentStyleType="text/css" height="318px" preserveAspectRatio="none" style="width:658px;height:318px;background:#FFFFFF;" version="1.1" viewBox="0 0 658 318" width="658px" zoomAndPan="magnify"><defs/><g><!--MD5=[1467174d094d3f7a82dac52dd3f73040]
cluster <<Folder>>--><g id="cluster_&lt;&lt;Folder&gt;&gt;"><path d="M8.5,6 L103.5,6 A3.75,3.75 0 0 1 106,8.5 L113,28.2969 L648.5,28.2969 A2.5,2.5 0 0 1 651,30.7969 L651,308.5 A2.5,2.5 0 0 1 648.5,311 L8.5,311 A2.5,2.5 0 0 1 6,308.5 L6,8.5 A2.5,2.5 0 0 1 8.5,6 " style="stroke:#000000;stroke-width:1.5;fill:none;"/><line style="stroke:#000000;stroke-width:1.5;fill:none;" x1="6" x2="113" y1="28.2969" y2="28.2969"/><text fill="#000000" font-family="sans-serif" font-size="14" font-weight="bold" lengthAdjust="spacing" textLength="94" x="10" y="20.9951">&lt;&lt;Folder&gt;&gt;</text></g><!--MD5=[db6d18d8099558415abc41d00477ab92]
class Admin--><a href="java:Admin" target="_top" title="java:Admin" xlink:actuate="onRequest" xlink:href="java:Admin" xlink:show="new" xlink:title="java:Admin" xlink:type="simple"><g id="elem_Admin"><rect codeLine="2" fill="#F1F1F1" height="96.8906" id="Admin" rx="2.5" ry="2.5" style="stroke:#181818;stroke-width:0.5;" width="171" x="22.5" y="41"/><ellipse cx="80.75" cy="57" fill="#ADD1B2" rx="11" ry="11" style="stroke:#181818;stroke-width:1.0;"/><path d="M83.0938,52.6719 C82.1563,52.2344 81.5625,52.0938 80.6875,52.0938 C78.0625,52.0938 76.0625,54.1719 76.0625,56.8906 L76.0625,58.0156 C76.0625,60.5938 78.1719,62.4844 81.0625,62.4844 C82.2813,62.4844 83.4375,62.1875 84.1875,61.6406 C84.7656,61.2344 85.0938,60.7813 85.0938,60.3906 C85.0938,59.9375 84.7031,59.5469 84.2344,59.5469 C84.0156,59.5469 83.8125,59.625 83.625,59.8125 C83.1719,60.2969 83.1719,60.2969 82.9844,60.3906 C82.5625,60.6563 81.875,60.7813 81.1094,60.7813 C79.0625,60.7813 77.7656,59.6875 77.7656,57.9844 L77.7656,56.8906 C77.7656,55.1094 79.0156,53.7969 80.75,53.7969 C81.3281,53.7969 81.9375,53.9531 82.4063,54.2031 C82.8906,54.4844 83.0625,54.7031 83.1563,55.1094 C83.2188,55.5156 83.25,55.6406 83.3906,55.7656 C83.5313,55.9063 83.7656,56.0156 83.9844,56.0156 C84.25,56.0156 84.5156,55.875 84.6875,55.6563 C84.7969,55.5 84.8281,55.3125 84.8281,54.8906 L84.8281,53.4688 C84.8281,53.0313 84.8125,52.9063 84.7188,52.75 C84.5625,52.4844 84.2813,52.3438 83.9844,52.3438 C83.6875,52.3438 83.4844,52.4375 83.2656,52.75 L83.0938,52.6719 Z " fill="#000000"/><text fill="#000000" font-family="sans-serif" font-size="14" lengthAdjust="spacing" textLength="46" x="101.25" y="61.8467">Admin</text><line style="stroke:#181818;stroke-width:0.5;" x1="23.5" x2="192.5" y1="73" y2="73"/><line style="stroke:#181818;stroke-width:0.5;" x1="23.5" x2="192.5" y1="81" y2="81"/><ellipse cx="33.5" cy="92" fill="#84BE84" rx="3" ry="3" style="stroke:#038048;stroke-width:1.0;"/><text fill="#000000" font-family="sans-serif" font-size="14" lengthAdjust="spacing" textLength="127" x="42.5" y="97.9951">createUser(): void</text><ellipse cx="33.5" cy="108.2969" fill="#84BE84" rx="3" ry="3" style="stroke:#038048;stroke-width:1.0;"/><text fill="#000000" font-family="sans-serif" font-size="14" lengthAdjust="spacing" textLength="109" x="42.5" y="114.292">editUser(): void</text><ellipse cx="33.5" cy="124.5938" fill="#84BE84" rx="3" ry="3" style="stroke:#038048;stroke-width:1.0;"/><text fill="#000000" font-family="sans-serif" font-size="14" lengthAdjust="spacing" textLength="145" x="42.5" y="130.5889">addSecretary(): void</text></g></a><!--MD5=[ca9d99efa02e66bc16d27330652d1b85]
class Clinic--><a href="java:Clinic" target="_top" title="java:Clinic" xlink:actuate="onRequest" xlink:href="java:Clinic" xlink:show="new" xlink:title="java:Clinic" xlink:type="simple"><g id="elem_Clinic"><rect codeLine="7" fill="#F1F1F1" height="48" id="Clinic" rx="2.5" ry="2.5" style="stroke:#181818;stroke-width:0.5;" width="71" x="228.5" y="65.5"/><ellipse cx="243.5" cy="81.5" fill="#ADD1B2" rx="11" ry="11" style="stroke:#181818;stroke-width:1.0;"/><path d="M245.8438,77.1719 C244.9063,76.7344 244.3125,76.5938 243.4375,76.5938 C240.8125,76.5938 238.8125,78.6719 238.8125,81.3906 L238.8125,82.5156 C238.8125,85.0938 240.9219,86.9844 243.8125,86.9844 C245.0313,86.9844 246.1875,86.6875 246.9375,86.1406 C247.5156,85.7344 247.8438,85.2813 247.8438,84.8906 C247.8438,84.4375 247.4531,84.0469 246.9844,84.0469 C246.7656,84.0469 246.5625,84.125 246.375,84.3125 C245.9219,84.7969 245.9219,84.7969 245.7344,84.8906 C245.3125,85.1563 244.625,85.2813 243.8594,85.2813 C241.8125,85.2813 240.5156,84.1875 240.5156,82.4844 L240.5156,81.3906 C240.5156,79.6094 241.7656,78.2969 243.5,78.2969 C244.0781,78.2969 244.6875,78.4531 245.1563,78.7031 C245.6406,78.9844 245.8125,79.2031 245.9063,79.6094 C245.9688,80.0156 246,80.1406 246.1406,80.2656 C246.2813,80.4063 246.5156,80.5156 246.7344,80.5156 C247,80.5156 247.2656,80.375 247.4375,80.1563 C247.5469,80 247.5781,79.8125 247.5781,79.3906 L247.5781,77.9688 C247.5781,77.5313 247.5625,77.4063 247.4688,77.25 C247.3125,76.9844 247.0313,76.8438 246.7344,76.8438 C246.4375,76.8438 246.2344,76.9375 246.0156,77.25 L245.8438,77.1719 Z " fill="#000000"/><text fill="#000000" font-family="sans-serif" font-size="14" lengthAdjust="spacing" textLength="39" x="257.5" y="86.3467">Clinic</text><line style="stroke:#181818;stroke-width:0.5;" x1="229.5" x2="298.5" y1="97.5" y2="97.5"/><line style="stroke:#181818;stroke-width:0.5;" x1="229.5" x2="298.5" y1="105.5" y2="105.5"/></g></a><!--MD5=[698bbf96e2f17bef343240c9d0980ba3]
class Medic--><a href="java:Medic" target="_top" title="java:Medic" xlink:actuate="onRequest" xlink:href="java:Medic" xlink:show="new" xlink:title="java:Medic" xlink:type="simple"><g id="elem_Medic"><rect codeLine="9" fill="#F1F1F1" height="64.2969" id="Medic" rx="2.5" ry="2.5" style="stroke:#181818;stroke-width:0.5;" width="300" x="335" y="57.5"/><ellipse cx="459.75" cy="73.5" fill="#ADD1B2" rx="11" ry="11" style="stroke:#181818;stroke-width:1.0;"/><path d="M462.0938,69.1719 C461.1563,68.7344 460.5625,68.5938 459.6875,68.5938 C457.0625,68.5938 455.0625,70.6719 455.0625,73.3906 L455.0625,74.5156 C455.0625,77.0938 457.1719,78.9844 460.0625,78.9844 C461.2813,78.9844 462.4375,78.6875 463.1875,78.1406 C463.7656,77.7344 464.0938,77.2813 464.0938,76.8906 C464.0938,76.4375 463.7031,76.0469 463.2344,76.0469 C463.0156,76.0469 462.8125,76.125 462.625,76.3125 C462.1719,76.7969 462.1719,76.7969 461.9844,76.8906 C461.5625,77.1563 460.875,77.2813 460.1094,77.2813 C458.0625,77.2813 456.7656,76.1875 456.7656,74.4844 L456.7656,73.3906 C456.7656,71.6094 458.0156,70.2969 459.75,70.2969 C460.3281,70.2969 460.9375,70.4531 461.4063,70.7031 C461.8906,70.9844 462.0625,71.2031 462.1563,71.6094 C462.2188,72.0156 462.25,72.1406 462.3906,72.2656 C462.5313,72.4063 462.7656,72.5156 462.9844,72.5156 C463.25,72.5156 463.5156,72.375 463.6875,72.1563 C463.7969,72 463.8281,71.8125 463.8281,71.3906 L463.8281,69.9688 C463.8281,69.5313 463.8125,69.4063 463.7188,69.25 C463.5625,68.9844 463.2813,68.8438 462.9844,68.8438 C462.6875,68.8438 462.4844,68.9375 462.2656,69.25 L462.0938,69.1719 Z " fill="#000000"/><text fill="#000000" font-family="sans-serif" font-size="14" lengthAdjust="spacing" textLength="42" x="480.25" y="78.3467">Medic</text><line style="stroke:#181818;stroke-width:0.5;" x1="336" x2="634" y1="89.5" y2="89.5"/><line style="stroke:#181818;stroke-width:0.5;" x1="336" x2="634" y1="97.5" y2="97.5"/><ellipse cx="346" cy="108.5" fill="#84BE84" rx="3" ry="3" style="stroke:#038048;stroke-width:1.0;"/><text fill="#000000" font-family="sans-serif" font-size="14" lengthAdjust="spacing" textLength="274" x="355" y="114.4951">containsPrepaid(prepaid: String): void</text></g></a><!--MD5=[dd91eae41778c45e12552e5329e240e8]
class Turn--><a href="java:Turn" target="_top" title="java:Turn" xlink:actuate="onRequest" xlink:href="java:Turn" xlink:show="new" xlink:title="java:Turn" xlink:type="simple"><g id="elem_Turn"><rect codeLine="12" fill="#F1F1F1" height="48" id="Turn" rx="2.5" ry="2.5" style="stroke:#181818;stroke-width:0.5;" width="64" x="76" y="222.5"/><ellipse cx="91" cy="238.5" fill="#ADD1B2" rx="11" ry="11" style="stroke:#181818;stroke-width:1.0;"/><path d="M93.3438,234.1719 C92.4063,233.7344 91.8125,233.5938 90.9375,233.5938 C88.3125,233.5938 86.3125,235.6719 86.3125,238.3906 L86.3125,239.5156 C86.3125,242.0938 88.4219,243.9844 91.3125,243.9844 C92.5313,243.9844 93.6875,243.6875 94.4375,243.1406 C95.0156,242.7344 95.3438,242.2813 95.3438,241.8906 C95.3438,241.4375 94.9531,241.0469 94.4844,241.0469 C94.2656,241.0469 94.0625,241.125 93.875,241.3125 C93.4219,241.7969 93.4219,241.7969 93.2344,241.8906 C92.8125,242.1563 92.125,242.2813 91.3594,242.2813 C89.3125,242.2813 88.0156,241.1875 88.0156,239.4844 L88.0156,238.3906 C88.0156,236.6094 89.2656,235.2969 91,235.2969 C91.5781,235.2969 92.1875,235.4531 92.6563,235.7031 C93.1406,235.9844 93.3125,236.2031 93.4063,236.6094 C93.4688,237.0156 93.5,237.1406 93.6406,237.2656 C93.7813,237.4063 94.0156,237.5156 94.2344,237.5156 C94.5,237.5156 94.7656,237.375 94.9375,237.1563 C95.0469,237 95.0781,236.8125 95.0781,236.3906 L95.0781,234.9688 C95.0781,234.5313 95.0625,234.4063 94.9688,234.25 C94.8125,233.9844 94.5313,233.8438 94.2344,233.8438 C93.9375,233.8438 93.7344,233.9375 93.5156,234.25 L93.3438,234.1719 Z " fill="#000000"/><text fill="#000000" font-family="sans-serif" font-size="14" lengthAdjust="spacing" textLength="32" x="105" y="243.3467">Turn</text><line style="stroke:#181818;stroke-width:0.5;" x1="77" x2="139" y1="254.5" y2="254.5"/><line style="stroke:#181818;stroke-width:0.5;" x1="77" x2="139" y1="262.5" y2="262.5"/></g></a><!--MD5=[9dd4eaa2771a2ff8dbee15cc1e732cab]
class Patient--><a href="java:Patient" target="_top" title="java:Patient" xlink:actuate="onRequest" xlink:href="java:Patient" xlink:show="new" xlink:title="java:Patient" xlink:type="simple"><g id="elem_Patient"><rect codeLine="14" fill="#F1F1F1" height="80.5938" id="Patient" rx="2.5" ry="2.5" style="stroke:#181818;stroke-width:0.5;" width="242" x="175" y="206"/><ellipse cx="265.25" cy="222" fill="#ADD1B2" rx="11" ry="11" style="stroke:#181818;stroke-width:1.0;"/><path d="M267.5938,217.6719 C266.6563,217.2344 266.0625,217.0938 265.1875,217.0938 C262.5625,217.0938 260.5625,219.1719 260.5625,221.8906 L260.5625,223.0156 C260.5625,225.5938 262.6719,227.4844 265.5625,227.4844 C266.7813,227.4844 267.9375,227.1875 268.6875,226.6406 C269.2656,226.2344 269.5938,225.7813 269.5938,225.3906 C269.5938,224.9375 269.2031,224.5469 268.7344,224.5469 C268.5156,224.5469 268.3125,224.625 268.125,224.8125 C267.6719,225.2969 267.6719,225.2969 267.4844,225.3906 C267.0625,225.6563 266.375,225.7813 265.6094,225.7813 C263.5625,225.7813 262.2656,224.6875 262.2656,222.9844 L262.2656,221.8906 C262.2656,220.1094 263.5156,218.7969 265.25,218.7969 C265.8281,218.7969 266.4375,218.9531 266.9063,219.2031 C267.3906,219.4844 267.5625,219.7031 267.6563,220.1094 C267.7188,220.5156 267.75,220.6406 267.8906,220.7656 C268.0313,220.9063 268.2656,221.0156 268.4844,221.0156 C268.75,221.0156 269.0156,220.875 269.1875,220.6563 C269.2969,220.5 269.3281,220.3125 269.3281,219.8906 L269.3281,218.4688 C269.3281,218.0313 269.3125,217.9063 269.2188,217.75 C269.0625,217.4844 268.7813,217.3438 268.4844,217.3438 C268.1875,217.3438 267.9844,217.4375 267.7656,217.75 L267.5938,217.6719 Z " fill="#000000"/><text fill="#000000" font-family="sans-serif" font-size="14" lengthAdjust="spacing" textLength="53" x="285.75" y="226.8467">Patient</text><line style="stroke:#181818;stroke-width:0.5;" x1="176" x2="416" y1="238" y2="238"/><line style="stroke:#181818;stroke-width:0.5;" x1="176" x2="416" y1="246" y2="246"/><ellipse cx="186" cy="257" fill="#84BE84" rx="3" ry="3" style="stroke:#038048;stroke-width:1.0;"/><text fill="#000000" font-family="sans-serif" font-size="14" lengthAdjust="spacing" textLength="216" x="195" y="262.9951">requestTurn(turno: Turn): void</text><ellipse cx="186" cy="273.2969" fill="#84BE84" rx="3" ry="3" style="stroke:#038048;stroke-width:1.0;"/><text fill="#000000" font-family="sans-serif" font-size="14" lengthAdjust="spacing" textLength="207" x="195" y="279.292">cancelTurn(turno: Turn): void</text></g></a><!--MD5=[7e38ca165c6656bc1b7272e64edc1765]
class Secretary--><a href="java:Secretary" target="_top" title="java:Secretary" xlink:actuate="onRequest" xlink:href="java:Secretary" xlink:show="new" xlink:title="java:Secretary" xlink:type="simple"><g id="elem_Secretary"><rect codeLine="18" fill="#F1F1F1" height="96.8906" id="Secretary" rx="2.5" ry="2.5" style="stroke:#181818;stroke-width:0.5;" width="153" x="452.5" y="198"/><ellipse cx="490.45" cy="214" fill="#ADD1B2" rx="11" ry="11" style="stroke:#181818;stroke-width:1.0;"/><path d="M492.7938,209.6719 C491.8563,209.2344 491.2625,209.0938 490.3875,209.0938 C487.7625,209.0938 485.7625,211.1719 485.7625,213.8906 L485.7625,215.0156 C485.7625,217.5938 487.8719,219.4844 490.7625,219.4844 C491.9813,219.4844 493.1375,219.1875 493.8875,218.6406 C494.4656,218.2344 494.7938,217.7813 494.7938,217.3906 C494.7938,216.9375 494.4031,216.5469 493.9344,216.5469 C493.7156,216.5469 493.5125,216.625 493.325,216.8125 C492.8719,217.2969 492.8719,217.2969 492.6844,217.3906 C492.2625,217.6563 491.575,217.7813 490.8094,217.7813 C488.7625,217.7813 487.4656,216.6875 487.4656,214.9844 L487.4656,213.8906 C487.4656,212.1094 488.7156,210.7969 490.45,210.7969 C491.0281,210.7969 491.6375,210.9531 492.1063,211.2031 C492.5906,211.4844 492.7625,211.7031 492.8563,212.1094 C492.9188,212.5156 492.95,212.6406 493.0906,212.7656 C493.2313,212.9063 493.4656,213.0156 493.6844,213.0156 C493.95,213.0156 494.2156,212.875 494.3875,212.6563 C494.4969,212.5 494.5281,212.3125 494.5281,211.8906 L494.5281,210.4688 C494.5281,210.0313 494.5125,209.9063 494.4188,209.75 C494.2625,209.4844 493.9813,209.3438 493.6844,209.3438 C493.3875,209.3438 493.1844,209.4375 492.9656,209.75 L492.7938,209.6719 Z " fill="#000000"/><text fill="#000000" font-family="sans-serif" font-size="14" lengthAdjust="spacing" textLength="70" x="509.55" y="218.8467">Secretary</text><line style="stroke:#181818;stroke-width:0.5;" x1="453.5" x2="604.5" y1="230" y2="230"/><line style="stroke:#181818;stroke-width:0.5;" x1="453.5" x2="604.5" y1="238" y2="238"/><ellipse cx="463.5" cy="249" fill="#84BE84" rx="3" ry="3" style="stroke:#038048;stroke-width:1.0;"/><text fill="#000000" font-family="sans-serif" font-size="14" lengthAdjust="spacing" textLength="127" x="472.5" y="254.9951">cancelTurn(): void</text><ellipse cx="463.5" cy="265.2969" fill="#84BE84" rx="3" ry="3" style="stroke:#038048;stroke-width:1.0;"/><text fill="#000000" font-family="sans-serif" font-size="14" lengthAdjust="spacing" textLength="110" x="472.5" y="271.292">editTurn(): void</text><ellipse cx="463.5" cy="281.5938" fill="#84BE84" rx="3" ry="3" style="stroke:#038048;stroke-width:1.0;"/><text fill="#000000" font-family="sans-serif" font-size="14" lengthAdjust="spacing" textLength="110" x="472.5" y="287.5889">listTurns(): void</text></g></a><!--MD5=[5e6c5b7fd7579ab5fbb5809872b7c5cf]
@startuml
package  <<Folder>> {
class Admin [[java:Admin]] {
	+createUser(): void
	+editUser(): void
	+addSecretary(): void
}
class Clinic [[java:Clinic]] {
}
class Medic [[java:Medic]] {
	+containsPrepaid(prepaid: String): void
}
class Turn [[java:Turn]] {
}
class Patient [[java:Patient]] {
	+requestTurn(turno: Turn): void
	+cancelTurn(turno: Turn): void
}
class Secretary [[java:Secretary]] {
	+cancelTurn(): void
	+editTurn(): void
	+listTurns(): void
}

}
@enduml

PlantUML version 1.2022.6beta5(Unknown compile time)
(GPL source distribution)
Java Runtime: Java(TM) SE Runtime Environment
JVM: Java HotSpot(TM) 64-Bit Server VM
Default Encoding: UTF-8
Language: en
Country: US
--></g></svg>